<?xml version="1.0" standalone="no"?>
<svg
  width="600"
  height="600"
  viewBox="0 0 600 600"
  xmlns="http://www.w3.org/2000/svg"
>
  <g transform="translate(300,300)">
    <path d="M74.6,-118.1C108.9,-94.1,157.2,-94,184.3,-73C211.3,-51.9,217,-9.9,209.1,28.5C201.1,67,179.5,101.9,147.3,113.4C115.2,124.8,72.4,112.8,33.7,132C-5,151.3,-39.5,201.8,-62.4,200.5C-85.2,199.2,-96.2,146.1,-132.1,111C-167.9,75.8,-228.5,58.7,-245.4,27.3C-262.4,-4.1,-235.8,-49.8,-207.2,-87.2C-178.6,-124.5,-148,-153.5,-113.1,-177.3C-78.2,-201,-39.1,-219.5,-9.5,-204.8C20.2,-190.1,40.4,-142.1,74.6,-118.1Z" fill="#fffffe" />
  </g>
</svg>
  