<?xml version="1.0" standalone="no"?>
<svg
  width="600"
  height="600"
  viewBox="0 0 600 600"
  xmlns="http://www.w3.org/2000/svg"
>
  <g transform="translate(300,300)">
    <path d="M134.5,-208.1C173.4,-184.2,203.6,-145.5,225.9,-101.7C248.2,-57.9,262.7,-9,252.1,33.3C241.4,75.7,205.7,111.5,168.4,135.1C131.1,158.7,92.2,170,53,182.2C13.9,194.5,-25.4,207.6,-69.7,208C-114,208.5,-163.2,196.2,-185.5,164.2C-207.9,132.2,-203.4,80.4,-205.6,32.6C-207.8,-15.3,-216.7,-59.1,-208.2,-102.3C-199.8,-145.5,-174,-188,-136.4,-212.5C-98.8,-237,-49.4,-243.5,-0.8,-242.2C47.8,-241,95.5,-232,134.5,-208.1Z" fill="#fffffe" />
  </g>
</svg>
  